<svg width="1311" height="1254" viewBox="0 0 1311 1254" fill="none" xmlns="http://www.w3.org/2000/svg">
<g clip-path="url(#clip0_2_530)">
<mask id="mask0_2_530" style="mask-type:alpha" maskUnits="userSpaceOnUse" x="-23" y="0" width="1334" height="1254">
<path d="M1311 0H-23V1253.4H1311V0Z" fill="url(#paint0_radial_2_530)"/>
</mask>
<g mask="url(#mask0_2_530)">
<path opacity="0.25" d="M1115.64 1109C855.163 1369.47 432.841 1369.47 172.362 1109C-88.1181 848.515 -88.1181 426.195 172.362 165.715C432.841 -94.7643 855.163 -94.7643 1115.64 165.715C1376.13 426.195 1376.13 848.515 1115.64 1109Z" stroke="url(#paint1_radial_2_530)" stroke-width="1.85278"/>
<path opacity="0.25" d="M1311 637.355C1311 268.982 1012.37 -29.6445 643.996 -29.6445C275.622 -29.6445 -23.0039 268.982 -23.0039 637.355C-23.0039 1005.73 275.622 1304.36 643.996 1304.36C1012.37 1304.36 1311 1005.73 1311 637.355Z" stroke="url(#paint2_radial_2_530)" stroke-width="1.85278"/>
<g filter="url(#filter0_dif_2_530)">
<path d="M1215.19 292.739C1199.53 266.831 1182.15 242.076 1163.21 218.628M978.428 60.1252C963.504 51.4577 948.209 43.3527 932.572 35.8394M68.666 299.687C75.082 288.779 81.7993 278.069 88.8065 267.57M250.286 98.8966C255.933 94.7612 261.646 90.7129 267.424 86.7529" stroke="#D5B356" stroke-width="0.926389"/>
</g>
<path opacity="0.25" d="M738.328 731.683C686.232 783.78 601.768 783.78 549.672 731.683C497.576 679.588 497.576 595.123 549.672 543.028C601.768 490.931 686.232 490.931 738.328 543.028C790.424 595.123 790.424 679.588 738.328 731.683Z" stroke="url(#paint3_radial_2_530)" stroke-width="0.370556"/>
<path opacity="0.25" d="M777.4 637.355C777.4 563.681 717.674 503.955 644 503.955C570.325 503.955 510.6 563.681 510.6 637.355C510.6 711.03 570.325 770.755 644 770.755C717.674 770.755 777.4 711.03 777.4 637.355Z" stroke="url(#paint4_radial_2_530)" stroke-width="0.370556"/>
<g filter="url(#filter1_dif_2_530)">
<path d="M758.238 568.432C755.105 563.251 751.629 558.299 747.843 553.61M710.885 521.91C707.899 520.176 704.84 518.555 701.713 517.053M528.932 569.822C530.216 567.64 531.559 565.498 532.961 563.398M565.256 529.664C566.386 528.836 567.528 528.027 568.684 527.235" stroke="#D5B356" stroke-width="0.185278"/>
</g>
<path opacity="0.25" d="M785.492 778.847C707.348 856.991 580.652 856.991 502.508 778.847C424.364 700.703 424.364 574.007 502.508 495.863C580.652 417.719 707.348 417.719 785.492 495.863C863.637 574.007 863.637 700.703 785.492 778.847Z" stroke="url(#paint5_radial_2_530)" stroke-width="0.555833"/>
<path opacity="0.25" d="M844.098 637.356C844.098 526.843 754.511 437.256 643.998 437.256C533.486 437.256 443.898 526.843 443.898 637.356C443.898 747.868 533.486 837.456 643.998 837.456C754.511 837.456 844.098 747.868 844.098 637.356Z" stroke="url(#paint6_radial_2_530)" stroke-width="0.555833"/>
<g filter="url(#filter2_dif_2_530)">
<path d="M815.357 533.97C810.658 526.198 805.444 518.771 799.764 511.737M744.327 464.186C739.849 461.586 735.26 459.154 730.571 456.9M471.398 536.055C473.323 532.783 475.338 529.569 477.44 526.419M525.885 475.818C527.578 474.577 529.292 473.362 531.026 472.175" stroke="#D5B356" stroke-width="0.277917"/>
</g>
<path opacity="0.25" d="M785.492 778.847C707.348 856.991 580.652 856.991 502.508 778.847C424.364 700.703 424.364 574.007 502.508 495.863C580.652 417.719 707.348 417.719 785.492 495.863C863.637 574.007 863.637 700.703 785.492 778.847Z" stroke="url(#paint7_radial_2_530)" stroke-width="0.555833"/>
<path opacity="0.25" d="M844.098 637.356C844.098 526.843 754.511 437.256 643.998 437.256C533.486 437.256 443.898 526.843 443.898 637.356C443.898 747.868 533.486 837.456 643.998 837.456C754.511 837.456 844.098 747.868 844.098 637.356Z" stroke="url(#paint8_radial_2_530)" stroke-width="0.555833"/>
<g filter="url(#filter3_dif_2_530)">
<path d="M815.357 533.97C810.658 526.198 805.444 518.771 799.764 511.737M744.327 464.186C739.849 461.586 735.26 459.154 730.571 456.9M471.398 536.055C473.323 532.783 475.338 529.569 477.44 526.419M525.885 475.818C527.578 474.577 529.292 473.362 531.026 472.175" stroke="#D5B356" stroke-width="0.277917"/>
</g>
<path opacity="0.25" d="M832.657 826.012C728.465 930.205 559.537 930.205 455.345 826.012C351.153 721.82 351.153 552.891 455.345 448.699C559.537 344.507 728.465 344.507 832.657 448.699C936.851 552.891 936.851 721.82 832.657 826.012Z" stroke="url(#paint9_radial_2_530)" stroke-width="0.741111"/>
<path opacity="0.25" d="M910.797 637.355C910.797 490.006 791.347 370.555 643.997 370.555C496.648 370.555 377.197 490.006 377.197 637.355C377.197 784.705 496.648 904.155 643.997 904.155C791.347 904.155 910.797 784.705 910.797 637.355Z" stroke="url(#paint10_radial_2_530)" stroke-width="0.741111"/>
<g filter="url(#filter4_dif_2_530)">
<path d="M872.477 499.509C866.211 489.146 859.26 479.243 851.687 469.864M777.77 406.463C771.799 402.996 765.681 399.754 759.428 396.749M413.865 502.288C416.432 497.925 419.119 493.641 421.922 489.441M486.514 421.972C488.772 420.318 491.058 418.698 493.369 417.115" stroke="#D5B356" stroke-width="0.370556"/>
</g>
<path opacity="0.25" d="M879.82 873.175C749.58 1003.42 538.419 1003.42 408.18 873.175C277.94 742.936 277.94 531.775 408.18 401.536C538.419 271.295 749.58 271.295 879.82 401.536C1010.06 531.775 1010.06 742.936 879.82 873.175Z" stroke="url(#paint11_radial_2_530)" stroke-width="0.926389"/>
<path opacity="0.25" d="M977.498 637.355C977.498 453.168 828.185 303.855 643.998 303.855C459.811 303.855 310.498 453.168 310.498 637.355C310.498 821.542 459.811 970.855 643.998 970.855C828.185 970.855 977.498 821.542 977.498 637.355Z" stroke="url(#paint12_radial_2_530)" stroke-width="0.926389"/>
<g filter="url(#filter5_dif_2_530)">
<path d="M929.597 465.047C921.76 452.093 913.08 439.715 903.612 427.992M811.213 348.74C803.749 344.406 796.102 340.354 788.285 336.598M356.332 468.521C359.54 463.067 362.899 457.712 366.403 452.462M447.142 368.126C449.965 366.059 452.822 364.035 455.711 362.054" stroke="#D5B356" stroke-width="0.463194"/>
</g>
<path opacity="0.25" d="M926.985 920.339C770.698 1076.63 517.304 1076.63 361.017 920.339C204.729 764.052 204.729 510.659 361.017 354.371C517.304 198.083 770.698 198.083 926.985 354.371C1083.28 510.659 1083.28 764.052 926.985 920.339Z" stroke="url(#paint13_radial_2_530)" stroke-width="1.11167"/>
<path opacity="0.25" d="M1044.2 637.355C1044.2 416.331 865.021 237.155 643.997 237.155C422.973 237.155 243.797 416.331 243.797 637.355C243.797 858.38 422.973 1037.56 643.997 1037.56C865.021 1037.56 1044.2 858.38 1044.2 637.355Z" stroke="url(#paint14_radial_2_530)" stroke-width="1.11167"/>
<g filter="url(#filter6_dif_2_530)">
<path d="M986.718 430.585C977.316 415.041 966.894 400.187 955.527 386.119M844.656 291.017C835.699 285.817 826.523 280.954 817.142 276.445M298.799 434.754C302.649 428.209 306.679 421.784 310.883 415.484M407.771 314.28C411.159 311.799 414.586 309.37 418.054 306.994" stroke="#D5B356" stroke-width="0.555833"/>
</g>
<path opacity="0.25" d="M974.148 967.502C791.814 1149.84 496.19 1149.84 313.854 967.502C131.517 785.168 131.517 489.542 313.854 307.207C496.19 124.871 791.814 124.871 974.148 307.207C1156.49 489.542 1156.49 785.168 974.148 967.502Z" stroke="url(#paint15_radial_2_530)" stroke-width="1.29694"/>
<path opacity="0.25" d="M1110.9 637.355C1110.9 379.494 901.859 170.455 643.998 170.455C386.136 170.455 177.098 379.494 177.098 637.355C177.098 895.217 386.136 1104.26 643.998 1104.26C901.859 1104.26 1110.9 895.217 1110.9 637.355Z" stroke="url(#paint16_radial_2_530)" stroke-width="1.29694"/>
<g filter="url(#filter7_dif_2_530)">
<path d="M1043.83 396.124C1032.87 377.989 1020.71 360.659 1007.45 344.246M878.1 233.294C867.65 227.227 856.943 221.553 846 216.294M241.266 400.987C245.757 393.352 250.459 385.855 255.364 378.506M368.4 260.435C372.352 257.54 376.352 254.706 380.397 251.933" stroke="#D5B356" stroke-width="0.648472"/>
</g>
<path opacity="0.25" d="M1021.31 1014.66C812.93 1223.06 475.074 1223.06 266.69 1014.66C58.3065 806.283 58.3065 468.427 266.69 260.044C475.074 51.6593 812.93 51.6593 1021.31 260.044C1229.7 468.427 1229.7 806.283 1021.31 1014.66Z" stroke="url(#paint17_radial_2_530)" stroke-width="1.48222"/>
<path opacity="0.25" d="M1177.6 637.356C1177.6 342.656 938.696 103.755 643.997 103.755C349.297 103.755 110.396 342.656 110.396 637.356C110.396 932.055 349.297 1170.96 643.997 1170.96C938.696 1170.96 1177.6 932.055 1177.6 637.356Z" stroke="url(#paint18_radial_2_530)" stroke-width="1.48222"/>
<g filter="url(#filter8_dif_2_530)">
<path d="M1100.95 361.662C1088.43 340.936 1074.52 321.131 1059.38 302.373M911.542 175.571C899.599 168.637 887.364 162.153 874.857 156.143M183.732 367.22C188.866 358.494 194.239 349.926 199.845 341.527M329.029 206.588C333.545 203.28 338.116 200.041 342.74 196.873" stroke="#D5B356" stroke-width="0.741111"/>
</g>
<path opacity="0.25" d="M1068.48 1061.84C834.046 1296.26 453.957 1296.26 219.525 1061.84C-14.9067 827.399 -14.9067 447.311 219.525 212.879C453.957 -21.5528 834.046 -21.5528 1068.48 212.879C1302.91 447.311 1302.91 827.399 1068.48 1061.84Z" stroke="url(#paint19_radial_2_530)" stroke-width="1.6675"/>
<path opacity="0.25" d="M1244.3 637.355C1244.3 305.819 975.532 37.0553 643.995 37.0553C312.459 37.0553 43.6953 305.819 43.6953 637.355C43.6953 968.892 312.459 1237.66 643.995 1237.66C975.532 1237.66 1244.3 968.892 1244.3 637.355Z" stroke="url(#paint20_radial_2_530)" stroke-width="1.6675"/>
<g filter="url(#filter9_dif_2_530)">
<path d="M1158.07 327.2C1143.97 303.883 1128.34 281.603 1111.3 260.5M944.985 117.847C931.553 110.047 917.787 102.753 903.715 95.9902M126.199 333.453C131.973 323.636 138.019 313.997 144.326 304.548M289.658 152.743C294.739 149.02 299.881 145.377 305.082 141.813" stroke="#D5B356" stroke-width="0.83375"/>
</g>
</g>
</g>
<defs>
<filter id="filter0_dif_2_530" x="64.5612" y="31.7163" width="1154.73" height="271.911" filterUnits="userSpaceOnUse" color-interpolation-filters="sRGB">
<feFlood flood-opacity="0" result="BackgroundImageFix"/>
<feColorMatrix in="SourceAlpha" type="matrix" values="0 0 0 0 0 0 0 0 0 0 0 0 0 0 0 0 0 0 127 0" result="hardAlpha"/>
<feOffset/>
<feGaussianBlur stdDeviation="1.85278"/>
<feComposite in2="hardAlpha" operator="out"/>
<feColorMatrix type="matrix" values="0 0 0 0 0.835294 0 0 0 0 0.701961 0 0 0 0 0.337255 0 0 0 0.7 0"/>
<feBlend mode="normal" in2="BackgroundImageFix" result="effect1_dropShadow_2_530"/>
<feBlend mode="normal" in="SourceGraphic" in2="effect1_dropShadow_2_530" result="shape"/>
<feColorMatrix in="SourceAlpha" type="matrix" values="0 0 0 0 0 0 0 0 0 0 0 0 0 0 0 0 0 0 127 0" result="hardAlpha"/>
<feOffset/>
<feGaussianBlur stdDeviation="3.70556"/>
<feComposite in2="hardAlpha" operator="arithmetic" k2="-1" k3="1"/>
<feColorMatrix type="matrix" values="0 0 0 0 0.835294 0 0 0 0 0.701961 0 0 0 0 0.337255 0 0 0 1 0"/>
<feBlend mode="normal" in2="shape" result="effect2_innerShadow_2_530"/>
<feGaussianBlur stdDeviation="1.85278" result="effect3_foregroundBlur_2_530"/>
</filter>
<filter id="filter1_dif_2_530" x="528.111" y="516.228" width="230.948" height="54.3816" filterUnits="userSpaceOnUse" color-interpolation-filters="sRGB">
<feFlood flood-opacity="0" result="BackgroundImageFix"/>
<feColorMatrix in="SourceAlpha" type="matrix" values="0 0 0 0 0 0 0 0 0 0 0 0 0 0 0 0 0 0 127 0" result="hardAlpha"/>
<feOffset/>
<feGaussianBlur stdDeviation="0.370556"/>
<feComposite in2="hardAlpha" operator="out"/>
<feColorMatrix type="matrix" values="0 0 0 0 0.835294 0 0 0 0 0.701961 0 0 0 0 0.337255 0 0 0 0.7 0"/>
<feBlend mode="normal" in2="BackgroundImageFix" result="effect1_dropShadow_2_530"/>
<feBlend mode="normal" in="SourceGraphic" in2="effect1_dropShadow_2_530" result="shape"/>
<feColorMatrix in="SourceAlpha" type="matrix" values="0 0 0 0 0 0 0 0 0 0 0 0 0 0 0 0 0 0 127 0" result="hardAlpha"/>
<feOffset/>
<feGaussianBlur stdDeviation="0.741111"/>
<feComposite in2="hardAlpha" operator="arithmetic" k2="-1" k3="1"/>
<feColorMatrix type="matrix" values="0 0 0 0 0.835294 0 0 0 0 0.701961 0 0 0 0 0.337255 0 0 0 1 0"/>
<feBlend mode="normal" in2="shape" result="effect2_innerShadow_2_530"/>
<feGaussianBlur stdDeviation="0.370556" result="effect3_foregroundBlur_2_530"/>
</filter>
<filter id="filter2_dif_2_530" x="470.167" y="455.663" width="346.421" height="81.5734" filterUnits="userSpaceOnUse" color-interpolation-filters="sRGB">
<feFlood flood-opacity="0" result="BackgroundImageFix"/>
<feColorMatrix in="SourceAlpha" type="matrix" values="0 0 0 0 0 0 0 0 0 0 0 0 0 0 0 0 0 0 127 0" result="hardAlpha"/>
<feOffset/>
<feGaussianBlur stdDeviation="0.555833"/>
<feComposite in2="hardAlpha" operator="out"/>
<feColorMatrix type="matrix" values="0 0 0 0 0.835294 0 0 0 0 0.701961 0 0 0 0 0.337255 0 0 0 0.7 0"/>
<feBlend mode="normal" in2="BackgroundImageFix" result="effect1_dropShadow_2_530"/>
<feBlend mode="normal" in="SourceGraphic" in2="effect1_dropShadow_2_530" result="shape"/>
<feColorMatrix in="SourceAlpha" type="matrix" values="0 0 0 0 0 0 0 0 0 0 0 0 0 0 0 0 0 0 127 0" result="hardAlpha"/>
<feOffset/>
<feGaussianBlur stdDeviation="1.11167"/>
<feComposite in2="hardAlpha" operator="arithmetic" k2="-1" k3="1"/>
<feColorMatrix type="matrix" values="0 0 0 0 0.835294 0 0 0 0 0.701961 0 0 0 0 0.337255 0 0 0 1 0"/>
<feBlend mode="normal" in2="shape" result="effect2_innerShadow_2_530"/>
<feGaussianBlur stdDeviation="0.555833" result="effect3_foregroundBlur_2_530"/>
</filter>
<filter id="filter3_dif_2_530" x="470.167" y="455.663" width="346.421" height="81.5734" filterUnits="userSpaceOnUse" color-interpolation-filters="sRGB">
<feFlood flood-opacity="0" result="BackgroundImageFix"/>
<feColorMatrix in="SourceAlpha" type="matrix" values="0 0 0 0 0 0 0 0 0 0 0 0 0 0 0 0 0 0 127 0" result="hardAlpha"/>
<feOffset/>
<feGaussianBlur stdDeviation="0.555833"/>
<feComposite in2="hardAlpha" operator="out"/>
<feColorMatrix type="matrix" values="0 0 0 0 0.835294 0 0 0 0 0.701961 0 0 0 0 0.337255 0 0 0 0.7 0"/>
<feBlend mode="normal" in2="BackgroundImageFix" result="effect1_dropShadow_2_530"/>
<feBlend mode="normal" in="SourceGraphic" in2="effect1_dropShadow_2_530" result="shape"/>
<feColorMatrix in="SourceAlpha" type="matrix" values="0 0 0 0 0 0 0 0 0 0 0 0 0 0 0 0 0 0 127 0" result="hardAlpha"/>
<feOffset/>
<feGaussianBlur stdDeviation="1.11167"/>
<feComposite in2="hardAlpha" operator="arithmetic" k2="-1" k3="1"/>
<feColorMatrix type="matrix" values="0 0 0 0 0.835294 0 0 0 0 0.701961 0 0 0 0 0.337255 0 0 0 1 0"/>
<feBlend mode="normal" in2="shape" result="effect2_innerShadow_2_530"/>
<feGaussianBlur stdDeviation="0.555833" result="effect3_foregroundBlur_2_530"/>
</filter>
<filter id="filter4_dif_2_530" x="412.223" y="395.1" width="461.894" height="108.764" filterUnits="userSpaceOnUse" color-interpolation-filters="sRGB">
<feFlood flood-opacity="0" result="BackgroundImageFix"/>
<feColorMatrix in="SourceAlpha" type="matrix" values="0 0 0 0 0 0 0 0 0 0 0 0 0 0 0 0 0 0 127 0" result="hardAlpha"/>
<feOffset/>
<feGaussianBlur stdDeviation="0.741111"/>
<feComposite in2="hardAlpha" operator="out"/>
<feColorMatrix type="matrix" values="0 0 0 0 0.835294 0 0 0 0 0.701961 0 0 0 0 0.337255 0 0 0 0.7 0"/>
<feBlend mode="normal" in2="BackgroundImageFix" result="effect1_dropShadow_2_530"/>
<feBlend mode="normal" in="SourceGraphic" in2="effect1_dropShadow_2_530" result="shape"/>
<feColorMatrix in="SourceAlpha" type="matrix" values="0 0 0 0 0 0 0 0 0 0 0 0 0 0 0 0 0 0 127 0" result="hardAlpha"/>
<feOffset/>
<feGaussianBlur stdDeviation="1.48222"/>
<feComposite in2="hardAlpha" operator="arithmetic" k2="-1" k3="1"/>
<feColorMatrix type="matrix" values="0 0 0 0 0.835294 0 0 0 0 0.701961 0 0 0 0 0.337255 0 0 0 1 0"/>
<feBlend mode="normal" in2="shape" result="effect2_innerShadow_2_530"/>
<feGaussianBlur stdDeviation="0.741111" result="effect3_foregroundBlur_2_530"/>
</filter>
<filter id="filter5_dif_2_530" x="354.28" y="334.536" width="577.369" height="135.955" filterUnits="userSpaceOnUse" color-interpolation-filters="sRGB">
<feFlood flood-opacity="0" result="BackgroundImageFix"/>
<feColorMatrix in="SourceAlpha" type="matrix" values="0 0 0 0 0 0 0 0 0 0 0 0 0 0 0 0 0 0 127 0" result="hardAlpha"/>
<feOffset/>
<feGaussianBlur stdDeviation="0.926389"/>
<feComposite in2="hardAlpha" operator="out"/>
<feColorMatrix type="matrix" values="0 0 0 0 0.835294 0 0 0 0 0.701961 0 0 0 0 0.337255 0 0 0 0.7 0"/>
<feBlend mode="normal" in2="BackgroundImageFix" result="effect1_dropShadow_2_530"/>
<feBlend mode="normal" in="SourceGraphic" in2="effect1_dropShadow_2_530" result="shape"/>
<feColorMatrix in="SourceAlpha" type="matrix" values="0 0 0 0 0 0 0 0 0 0 0 0 0 0 0 0 0 0 127 0" result="hardAlpha"/>
<feOffset/>
<feGaussianBlur stdDeviation="1.85278"/>
<feComposite in2="hardAlpha" operator="arithmetic" k2="-1" k3="1"/>
<feColorMatrix type="matrix" values="0 0 0 0 0.835294 0 0 0 0 0.701961 0 0 0 0 0.337255 0 0 0 1 0"/>
<feBlend mode="normal" in2="shape" result="effect2_innerShadow_2_530"/>
<feGaussianBlur stdDeviation="0.926389" result="effect3_foregroundBlur_2_530"/>
</filter>
<filter id="filter6_dif_2_530" x="296.336" y="273.971" width="692.844" height="163.147" filterUnits="userSpaceOnUse" color-interpolation-filters="sRGB">
<feFlood flood-opacity="0" result="BackgroundImageFix"/>
<feColorMatrix in="SourceAlpha" type="matrix" values="0 0 0 0 0 0 0 0 0 0 0 0 0 0 0 0 0 0 127 0" result="hardAlpha"/>
<feOffset/>
<feGaussianBlur stdDeviation="1.11167"/>
<feComposite in2="hardAlpha" operator="out"/>
<feColorMatrix type="matrix" values="0 0 0 0 0.835294 0 0 0 0 0.701961 0 0 0 0 0.337255 0 0 0 0.7 0"/>
<feBlend mode="normal" in2="BackgroundImageFix" result="effect1_dropShadow_2_530"/>
<feBlend mode="normal" in="SourceGraphic" in2="effect1_dropShadow_2_530" result="shape"/>
<feColorMatrix in="SourceAlpha" type="matrix" values="0 0 0 0 0 0 0 0 0 0 0 0 0 0 0 0 0 0 127 0" result="hardAlpha"/>
<feOffset/>
<feGaussianBlur stdDeviation="2.22333"/>
<feComposite in2="hardAlpha" operator="arithmetic" k2="-1" k3="1"/>
<feColorMatrix type="matrix" values="0 0 0 0 0.835294 0 0 0 0 0.701961 0 0 0 0 0.337255 0 0 0 1 0"/>
<feBlend mode="normal" in2="shape" result="effect2_innerShadow_2_530"/>
<feGaussianBlur stdDeviation="1.11167" result="effect3_foregroundBlur_2_530"/>
</filter>
<filter id="filter7_dif_2_530" x="238.392" y="213.408" width="808.31" height="190.338" filterUnits="userSpaceOnUse" color-interpolation-filters="sRGB">
<feFlood flood-opacity="0" result="BackgroundImageFix"/>
<feColorMatrix in="SourceAlpha" type="matrix" values="0 0 0 0 0 0 0 0 0 0 0 0 0 0 0 0 0 0 127 0" result="hardAlpha"/>
<feOffset/>
<feGaussianBlur stdDeviation="1.29694"/>
<feComposite in2="hardAlpha" operator="out"/>
<feColorMatrix type="matrix" values="0 0 0 0 0.835294 0 0 0 0 0.701961 0 0 0 0 0.337255 0 0 0 0.7 0"/>
<feBlend mode="normal" in2="BackgroundImageFix" result="effect1_dropShadow_2_530"/>
<feBlend mode="normal" in="SourceGraphic" in2="effect1_dropShadow_2_530" result="shape"/>
<feColorMatrix in="SourceAlpha" type="matrix" values="0 0 0 0 0 0 0 0 0 0 0 0 0 0 0 0 0 0 127 0" result="hardAlpha"/>
<feOffset/>
<feGaussianBlur stdDeviation="2.59389"/>
<feComposite in2="hardAlpha" operator="arithmetic" k2="-1" k3="1"/>
<feColorMatrix type="matrix" values="0 0 0 0 0.835294 0 0 0 0 0.701961 0 0 0 0 0.337255 0 0 0 1 0"/>
<feBlend mode="normal" in2="shape" result="effect2_innerShadow_2_530"/>
<feGaussianBlur stdDeviation="1.29694" result="effect3_foregroundBlur_2_530"/>
</filter>
<filter id="filter8_dif_2_530" x="180.449" y="152.844" width="923.785" height="217.528" filterUnits="userSpaceOnUse" color-interpolation-filters="sRGB">
<feFlood flood-opacity="0" result="BackgroundImageFix"/>
<feColorMatrix in="SourceAlpha" type="matrix" values="0 0 0 0 0 0 0 0 0 0 0 0 0 0 0 0 0 0 127 0" result="hardAlpha"/>
<feOffset/>
<feGaussianBlur stdDeviation="1.48222"/>
<feComposite in2="hardAlpha" operator="out"/>
<feColorMatrix type="matrix" values="0 0 0 0 0.835294 0 0 0 0 0.701961 0 0 0 0 0.337255 0 0 0 0.7 0"/>
<feBlend mode="normal" in2="BackgroundImageFix" result="effect1_dropShadow_2_530"/>
<feBlend mode="normal" in="SourceGraphic" in2="effect1_dropShadow_2_530" result="shape"/>
<feColorMatrix in="SourceAlpha" type="matrix" values="0 0 0 0 0 0 0 0 0 0 0 0 0 0 0 0 0 0 127 0" result="hardAlpha"/>
<feOffset/>
<feGaussianBlur stdDeviation="2.96444"/>
<feComposite in2="hardAlpha" operator="arithmetic" k2="-1" k3="1"/>
<feColorMatrix type="matrix" values="0 0 0 0 0.835294 0 0 0 0 0.701961 0 0 0 0 0.337255 0 0 0 1 0"/>
<feBlend mode="normal" in2="shape" result="effect2_innerShadow_2_530"/>
<feGaussianBlur stdDeviation="1.48222" result="effect3_foregroundBlur_2_530"/>
</filter>
<filter id="filter9_dif_2_530" x="122.505" y="92.2795" width="1039.26" height="244.72" filterUnits="userSpaceOnUse" color-interpolation-filters="sRGB">
<feFlood flood-opacity="0" result="BackgroundImageFix"/>
<feColorMatrix in="SourceAlpha" type="matrix" values="0 0 0 0 0 0 0 0 0 0 0 0 0 0 0 0 0 0 127 0" result="hardAlpha"/>
<feOffset/>
<feGaussianBlur stdDeviation="1.6675"/>
<feComposite in2="hardAlpha" operator="out"/>
<feColorMatrix type="matrix" values="0 0 0 0 0.835294 0 0 0 0 0.701961 0 0 0 0 0.337255 0 0 0 0.7 0"/>
<feBlend mode="normal" in2="BackgroundImageFix" result="effect1_dropShadow_2_530"/>
<feBlend mode="normal" in="SourceGraphic" in2="effect1_dropShadow_2_530" result="shape"/>
<feColorMatrix in="SourceAlpha" type="matrix" values="0 0 0 0 0 0 0 0 0 0 0 0 0 0 0 0 0 0 127 0" result="hardAlpha"/>
<feOffset/>
<feGaussianBlur stdDeviation="3.335"/>
<feComposite in2="hardAlpha" operator="arithmetic" k2="-1" k3="1"/>
<feColorMatrix type="matrix" values="0 0 0 0 0.835294 0 0 0 0 0.701961 0 0 0 0 0.337255 0 0 0 1 0"/>
<feBlend mode="normal" in2="shape" result="effect2_innerShadow_2_530"/>
<feGaussianBlur stdDeviation="1.6675" result="effect3_foregroundBlur_2_530"/>
</filter>
<radialGradient id="paint0_radial_2_530" cx="0" cy="0" r="1" gradientUnits="userSpaceOnUse" gradientTransform="translate(644) rotate(90) scale(1253.4 1334)">
<stop stop-color="#080808" stop-opacity="0"/>
<stop offset="1"/>
</radialGradient>
<radialGradient id="paint1_radial_2_530" cx="0" cy="0" r="1" gradientUnits="userSpaceOnUse" gradientTransform="translate(1115.64 165.715) rotate(135) scale(771.219)">
<stop stop-color="#D5B356"/>
<stop offset="1" stop-color="#D5B356" stop-opacity="0"/>
</radialGradient>
<radialGradient id="paint2_radial_2_530" cx="0" cy="0" r="1" gradientUnits="userSpaceOnUse" gradientTransform="translate(-23.0038 637.356) scale(771.219)">
<stop stop-color="#D5B356"/>
<stop offset="1" stop-color="#D5B356" stop-opacity="0"/>
</radialGradient>
<radialGradient id="paint3_radial_2_530" cx="0" cy="0" r="1" gradientUnits="userSpaceOnUse" gradientTransform="translate(738.327 543.028) rotate(135) scale(154.244)">
<stop stop-color="#D5B356"/>
<stop offset="1" stop-color="#D5B356" stop-opacity="0"/>
</radialGradient>
<radialGradient id="paint4_radial_2_530" cx="0" cy="0" r="1" gradientUnits="userSpaceOnUse" gradientTransform="translate(510.6 637.355) scale(154.244)">
<stop stop-color="#D5B356"/>
<stop offset="1" stop-color="#D5B356" stop-opacity="0"/>
</radialGradient>
<radialGradient id="paint5_radial_2_530" cx="0" cy="0" r="1" gradientUnits="userSpaceOnUse" gradientTransform="translate(785.492 495.863) rotate(135) scale(231.366)">
<stop stop-color="#D5B356"/>
<stop offset="1" stop-color="#D5B356" stop-opacity="0"/>
</radialGradient>
<radialGradient id="paint6_radial_2_530" cx="0" cy="0" r="1" gradientUnits="userSpaceOnUse" gradientTransform="translate(443.898 637.356) scale(231.366)">
<stop stop-color="#D5B356"/>
<stop offset="1" stop-color="#D5B356" stop-opacity="0"/>
</radialGradient>
<radialGradient id="paint7_radial_2_530" cx="0" cy="0" r="1" gradientUnits="userSpaceOnUse" gradientTransform="translate(785.492 495.863) rotate(135) scale(231.366)">
<stop stop-color="#D5B356"/>
<stop offset="1" stop-color="#D5B356" stop-opacity="0"/>
</radialGradient>
<radialGradient id="paint8_radial_2_530" cx="0" cy="0" r="1" gradientUnits="userSpaceOnUse" gradientTransform="translate(443.898 637.356) scale(231.366)">
<stop stop-color="#D5B356"/>
<stop offset="1" stop-color="#D5B356" stop-opacity="0"/>
</radialGradient>
<radialGradient id="paint9_radial_2_530" cx="0" cy="0" r="1" gradientUnits="userSpaceOnUse" gradientTransform="translate(832.658 448.699) rotate(135) scale(308.487)">
<stop stop-color="#D5B356"/>
<stop offset="1" stop-color="#D5B356" stop-opacity="0"/>
</radialGradient>
<radialGradient id="paint10_radial_2_530" cx="0" cy="0" r="1" gradientUnits="userSpaceOnUse" gradientTransform="translate(377.197 637.355) scale(308.488)">
<stop stop-color="#D5B356"/>
<stop offset="1" stop-color="#D5B356" stop-opacity="0"/>
</radialGradient>
<radialGradient id="paint11_radial_2_530" cx="0" cy="0" r="1" gradientUnits="userSpaceOnUse" gradientTransform="translate(879.82 401.536) rotate(135) scale(385.609)">
<stop stop-color="#D5B356"/>
<stop offset="1" stop-color="#D5B356" stop-opacity="0"/>
</radialGradient>
<radialGradient id="paint12_radial_2_530" cx="0" cy="0" r="1" gradientUnits="userSpaceOnUse" gradientTransform="translate(310.498 637.355) scale(385.609 385.609)">
<stop stop-color="#D5B356"/>
<stop offset="1" stop-color="#D5B356" stop-opacity="0"/>
</radialGradient>
<radialGradient id="paint13_radial_2_530" cx="0" cy="0" r="1" gradientUnits="userSpaceOnUse" gradientTransform="translate(926.985 354.371) rotate(135) scale(462.731)">
<stop stop-color="#D5B356"/>
<stop offset="1" stop-color="#D5B356" stop-opacity="0"/>
</radialGradient>
<radialGradient id="paint14_radial_2_530" cx="0" cy="0" r="1" gradientUnits="userSpaceOnUse" gradientTransform="translate(243.797 637.355) scale(462.731)">
<stop stop-color="#D5B356"/>
<stop offset="1" stop-color="#D5B356" stop-opacity="0"/>
</radialGradient>
<radialGradient id="paint15_radial_2_530" cx="0" cy="0" r="1" gradientUnits="userSpaceOnUse" gradientTransform="translate(974.148 307.207) rotate(135) scale(539.853)">
<stop stop-color="#D5B356"/>
<stop offset="1" stop-color="#D5B356" stop-opacity="0"/>
</radialGradient>
<radialGradient id="paint16_radial_2_530" cx="0" cy="0" r="1" gradientUnits="userSpaceOnUse" gradientTransform="translate(177.098 637.355) scale(539.853)">
<stop stop-color="#D5B356"/>
<stop offset="1" stop-color="#D5B356" stop-opacity="0"/>
</radialGradient>
<radialGradient id="paint17_radial_2_530" cx="0" cy="0" r="1" gradientUnits="userSpaceOnUse" gradientTransform="translate(1021.31 260.044) rotate(135) scale(616.975)">
<stop stop-color="#D5B356"/>
<stop offset="1" stop-color="#D5B356" stop-opacity="0"/>
</radialGradient>
<radialGradient id="paint18_radial_2_530" cx="0" cy="0" r="1" gradientUnits="userSpaceOnUse" gradientTransform="translate(110.396 637.356) scale(616.975)">
<stop stop-color="#D5B356"/>
<stop offset="1" stop-color="#D5B356" stop-opacity="0"/>
</radialGradient>
<radialGradient id="paint19_radial_2_530" cx="0" cy="0" r="1" gradientUnits="userSpaceOnUse" gradientTransform="translate(1068.48 212.879) rotate(135) scale(694.097)">
<stop stop-color="#D5B356"/>
<stop offset="1" stop-color="#D5B356" stop-opacity="0"/>
</radialGradient>
<radialGradient id="paint20_radial_2_530" cx="0" cy="0" r="1" gradientUnits="userSpaceOnUse" gradientTransform="translate(43.6955 637.354) scale(635.506)">
<stop stop-color="#D5B356"/>
<stop offset="1" stop-color="#D5B356" stop-opacity="0"/>
</radialGradient>
<clipPath id="clip0_2_530">
<rect width="1334" height="1253.4" fill="white" transform="translate(-23)"/>
</clipPath>
</defs>
</svg>
